<?xml version="1.0" encoding="UTF-8" standalone="no"?>
<svg width="128px" height="128px" viewBox="0 0 128 128" version="1.1" xmlns="http://www.w3.org/2000/svg" xmlns:xlink="http://www.w3.org/1999/xlink">
    <!-- Generator: Sketch 3.6 (26304) - http://www.bohemiancoding.com/sketch -->
    <title>clip</title>
    <desc>Created with Sketch.</desc>
    <defs>
        <rect id="path-1" x="24.4974747" y="33.4974747" width="50" height="90" rx="20"></rect>
        <rect id="path-3" x="53.4974747" y="4.49747468" width="50" height="90" rx="20"></rect>
    </defs>
    <g id="Icons" stroke="none" stroke-width="1" fill="none" fill-rule="evenodd">
        <g id="clip">
            <mask id="mask-2" fill="white">
                <use xlink:href="#path-1"></use>
            </mask>
            <use id="Rectangle-3" stroke="#6F6F6F" stroke-width="8" transform="translate(49.497475, 78.497475) rotate(-315.000000) translate(-49.497475, -78.497475) " xlink:href="#path-1"></use>
            <rect id="Rectangle-5" fill="#FFFFFF" mask="url(#mask-2)" x="61.7639626" y="34.7175144" width="2" height="16">
                <g transform="translate(62.763963, 42.717514) rotate(-315.000000) translate(-62.763963, -42.717514) "></g>
            </rect>
            <path d="M35,60.7374199 C35,58.1582799 35.2025566,55.0567182 36,53 C36.7974434,50.9432818 41.4554396,51.5482393 39.7277198,53 C38,54.4517607 37,58.0566023 37,60.5849034 C37,63.3899356 38,69 38,69 C38,69 36.7051253,70.9420513 36,69 C35.2948747,67.0579487 35,63.4916133 35,60.7374199 Z" id="Rectangle-5" fill="#FFFFFF" mask="url(#mask-2)"></path>
            <mask id="mask-4" fill="white">
                <use xlink:href="#path-3"></use>
            </mask>
            <use id="Rectangle-3" stroke="#6F6F6F" stroke-width="8" transform="translate(78.497475, 49.497475) rotate(-315.000000) translate(-78.497475, -49.497475) " xlink:href="#path-3"></use>
            <rect id="Rectangle-5" fill="#FFFFFF" mask="url(#mask-4)" x="64.363961" y="77.363961" width="2" height="16">
                <g transform="translate(65.363961, 85.363961) rotate(-315.000000) translate(-65.363961, -85.363961) "></g>
            </rect>
            <path d="M88.2326867,66.6515169 C88.2326867,64.0723769 88.4352432,60.9708152 89.2326867,58.914097 C90.0301301,56.8573788 91.2326867,58.914097 91.2326867,58.914097 C91.2326867,58.914097 90.2326867,63.9706992 90.2326867,66.4990004 C90.2326867,69.3040326 91.0001108,73.2444267 92.6342732,74.9140968 C94.2684356,76.5837669 89.9378119,76.8561483 89.2326867,74.914097 C88.5275614,72.9720457 88.2326867,69.4057103 88.2326867,66.6515169 Z" id="Rectangle-5" fill="#FFFFFF" mask="url(#mask-4)">
                <g transform="translate(90.616343, 67.135206) scale(-1, 1) translate(-90.616343, -67.135206) "></g>
            </path>
        </g>
    </g>
</svg>