<?xml version="1.0" encoding="UTF-8" standalone="no"?>
<svg width="113px" height="77px" viewBox="0 0 113 77" version="1.1" xmlns="http://www.w3.org/2000/svg" xmlns:xlink="http://www.w3.org/1999/xlink">
    <!-- Generator: Sketch 3.6 (26304) - http://www.bohemiancoding.com/sketch -->
    <title>Combined Shape@2x</title>
    <desc>Created with Sketch.</desc>
    <defs></defs>
    <g id="Product-Detail" stroke="none" stroke-width="1" fill="none" fill-rule="evenodd">
        <g id="liqi.newtab" transform="translate(-820.000000, -1242.000000)" fill="#303030">
            <path d="M887,1242 C901.968726,1245.97163 913,1259.61357 913,1275.83201 C913,1278.70986 912.652669,1281.50658 911.99764,1284.18255 C913.129256,1283.95268 914.300536,1283.83201 915.5,1283.83201 C925.164983,1283.83201 933,1291.66703 933,1301.33201 C933,1310.4917 925.962802,1318.00777 917,1318.76862 L917,1318.83201 L837,1318.83201 L837,1318.15495 C827.232235,1315.70095 820,1306.86107 820,1296.33201 C820,1283.9056 830.073593,1273.83201 842.5,1273.83201 C842.685804,1273.83201 842.871081,1273.83426 843.055807,1273.83874 C843.876242,1259.22573 853.66116,1247.00781 867,1242.59552 L867,1267.83201 L857,1267.83201 C857,1267.83201 873.523438,1287.83201 877.785156,1287.83201 C881.523438,1287.83201 898,1267.83201 898,1267.83201 L887,1267.83201 L887,1242 Z M867.98,1297.25201 C869.220006,1298.23201 869.989998,1299.682 870.29,1301.60201 L866.9,1301.60201 C866.699999,1300.642 866.290003,1299.91201 865.67,1299.41201 C865.049997,1298.93201 864.220005,1298.69201 863.18,1298.69201 C861.899994,1298.69201 860.910004,1299.162 860.21,1300.10201 C859.489996,1301.02201 859.13,1302.332 859.13,1304.03201 C859.13,1305.77202 859.479996,1307.112 860.18,1308.05201 C860.840003,1308.99201 861.829993,1309.46201 863.15,1309.46201 C865.410011,1309.46201 866.679999,1308.33202 866.96,1306.07201 L870.35,1306.07201 C869.989998,1308.17202 869.190006,1309.732 867.95,1310.75201 C866.729994,1311.75201 865.12001,1312.25201 863.12,1312.25201 C860.719988,1312.25201 858.860007,1311.47202 857.54,1309.91201 C856.259994,1308.432 855.62,1306.48202 855.62,1304.06201 C855.62,1301.702 856.249994,1299.79202 857.51,1298.33201 C858.870007,1296.712 860.759988,1295.90201 863.18,1295.90201 C865.18001,1295.90201 866.779994,1296.352 867.98,1297.25201 Z M882.32,1296.29201 L882.32,1299.71201 C881.599996,1299.49201 880.860004,1299.38201 880.1,1299.38201 C879.179995,1299.38201 878.370003,1299.73201 877.67,1300.43201 C876.849996,1301.23201 876.44,1302.292 876.44,1303.61201 L876.44,1311.83201 L873.05,1311.83201 L873.05,1296.32201 L876.44,1296.32201 L876.44,1298.54201 C876.860002,1297.74201 877.349997,1297.14201 877.91,1296.74201 C878.590003,1296.18201 879.409995,1295.90201 880.37,1295.90201 C881.150004,1295.90201 881.799997,1296.03201 882.32,1296.29201 Z M883.31,1296.32201 L887.3,1296.32201 L890.54,1301.06201 L893.75,1296.32201 L897.74,1296.32201 L892.4,1303.58201 L898.43,1311.83201 L894.41,1311.83201 L890.54,1306.10201 L886.64,1311.83201 L882.62,1311.83201 L888.65,1303.58201 L883.31,1296.32201 Z" id="Combined-Shape"></path>
        </g>
    </g>
</svg>