<?xml version="1.0" encoding="UTF-8" standalone="no"?>
<svg width="97px" height="80px" viewBox="0 0 97 80" version="1.1" xmlns="http://www.w3.org/2000/svg" xmlns:xlink="http://www.w3.org/1999/xlink">
    <!-- Generator: Sketch 3.6 (26304) - http://www.bohemiancoding.com/sketch -->
    <title>github@2x</title>
    <desc>Created with Sketch.</desc>
    <defs></defs>
    <g id="Product-Detail" stroke="none" stroke-width="1" fill="none" fill-rule="evenodd">
        <g id="liqi.newtab" transform="translate(-640.000000, -1242.000000)" fill="#252525">
            <g id="github" transform="translate(640.000000, 1242.000000)">
                <path d="M96.0249756,38.8120976 C96.0446829,38.8142439 96.0669268,38.8163902 96.0866341,38.8163902 C96.2407805,38.8163902 96.3816585,38.7041951 96.4105366,38.545561 C96.4433171,38.3668293 96.3244878,38.195122 96.1461463,38.16 C91.6359024,37.3291707 88.3361951,36.4105366 77.203122,36.5032195 C77.8969756,33.9361951 78.2716098,30.9000976 78.3463415,27.3043902 C78.3287805,17.5549268 73.6622439,14.1067317 72.7656585,12.4876098 C74.0876098,5.10653659 72.5451707,1.74653659 71.8290732,0.594341463 C69.1851707,-0.346536585 62.6306341,3.01365854 59.0501463,5.38204878 C53.2115122,3.67453659 40.8731707,3.83960976 36.246439,5.82263415 C27.7086829,-0.291512195 23.192,0.644878049 23.192,0.644878049 C23.192,0.644878049 20.2727805,5.87765854 22.4210732,13.5338537 C19.6119024,17.1143415 17.5186341,19.648 17.5186341,26.3635122 C17.5186341,30.1465366 17.9637073,33.532878 18.9683902,36.4897561 C14.5000976,36.4788293 5.13482927,37.0801951 0.748097561,38.1642927 C0.571902439,38.2083902 0.463609756,38.3890732 0.505560976,38.5654634 C0.543219512,38.7153171 0.679609756,38.8165854 0.827317073,38.8165854 C0.853658537,38.8165854 0.880195122,38.814439 0.906536585,38.8078049 C5.33268293,37.7127805 15.0109268,37.1178537 19.2060488,37.1531707 C19.4460488,37.7900488 19.715122,38.4070244 20.0122927,39.0040976 C9.2275122,39.2903415 6.31960976,40.830439 1.792,41.9607805 C1.46380488,42.0446829 1.14204878,42.1239024 0.829268293,42.2011707 C0.653073171,42.2452683 0.54302439,42.4257561 0.586731707,42.6019512 C0.624390244,42.7518049 0.758634146,42.8532683 0.908487805,42.8530732 C0.934829268,42.8530732 0.961365854,42.8509268 0.987707317,42.8442927 C1.30068293,42.7650732 1.6222439,42.6856585 1.95278049,42.6021463 C6.49385366,41.4675122 9.44078049,39.918439 20.3557073,39.6561951 C23.5639024,45.4817561 29.750439,49.1059512 40.1851707,50.1084878 C38.6958049,51.2388293 36.9067317,53.3847805 36.6600976,55.8657561 C34.7875122,57.0776585 31.0220488,57.4762927 28.0936585,56.5531707 C23.9912195,55.2577561 22.4202927,47.134439 16.2774634,48.2909268 C14.9467317,48.5422439 15.211122,49.4189268 16.3613659,50.1637073 C18.2341463,51.3754146 19.996878,52.891122 21.3560976,56.1190244 C22.4005854,58.5978537 24.5949268,63.0261463 31.5352195,63.0261463 C34.2893659,63.0261463 36.2193171,62.6958049 36.2193171,62.6958049 C36.2193171,62.6958049 36.2721951,69.0212683 36.2721951,71.4801951 C36.2721951,74.3157073 32.4450732,75.1157073 32.4450732,76.4794146 C32.4450732,77.019122 33.712,77.0698537 34.7299512,77.0698537 C36.7414634,77.0698537 40.9278049,75.3908293 40.9278049,72.443122 C40.9278049,70.1010732 40.9652683,62.2263415 40.9652683,60.8493659 C40.9652683,57.8374634 42.5800976,56.8835122 42.5800976,56.8835122 C42.5800976,56.8835122 42.7806829,72.9605854 42.1945366,75.1155122 C41.507122,77.6493659 40.2667317,77.2901463 40.2667317,78.4204878 C40.2667317,80.1014634 45.3057561,78.8323902 46.9758049,75.1418537 C48.2669268,72.268878 47.7030244,56.4977561 47.7030244,56.4977561 L49.08,56.4692683 C49.08,56.4692683 49.1572683,63.6893659 49.1110244,66.9896585 C49.062439,70.4068293 48.8312195,74.7297561 50.8602927,76.768 C52.1933659,78.1075122 56.5162927,80.4585366 56.5162927,78.3102439 C56.5162927,77.060878 54.1477073,76.0341463 54.1477073,72.654439 L54.1477073,57.1038049 C56.0380488,57.1038049 55.7537561,62.2173659 55.7537561,62.2173659 L55.8926829,71.7178537 C55.8926829,71.7178537 55.4762927,75.1793171 59.6360976,76.6290732 C61.1036098,77.142439 64.2452683,77.2811707 64.3929756,76.4197073 C64.5406829,75.5560976 60.6099512,74.2714146 60.5746341,71.5902439 C60.5527805,69.9553171 60.6476098,69.0013659 60.6476098,61.8958049 C60.6476098,54.7902439 59.6934634,52.1640976 56.3687805,50.0708293 C66.6292683,49.0154146 72.979122,46.4772683 76.0749268,39.6780488 C79.6310244,39.7947317 87.0772683,40.158439 95.7317073,42.8044878 C95.7623415,42.8154146 95.7955122,42.8199024 95.8286829,42.8199024 C95.9697561,42.8199024 96.0997073,42.7272195 96.1438049,42.5861463 C96.1964878,42.4099512 96.0997073,42.2247805 95.9233171,42.1719024 C87.3879024,39.5611707 80.1685854,39.1533659 76.3570732,39.0257561 C76.5970732,38.4353171 76.817561,37.8161951 77.0134634,37.1662439 C88.2109268,37.0626341 91.5192195,37.9793171 96.0249756,38.8120976 L96.0249756,38.8120976 Z M18.2891707,49.6210732 C17.8786341,49.6210732 17.545561,49.3994146 17.545561,49.1254634 C17.545561,48.8517073 17.8786341,48.6298537 18.2891707,48.6298537 C18.6997073,48.6298537 19.0327805,48.8519024 19.0327805,49.1254634 C19.0327805,49.3992195 18.6999024,49.6210732 18.2891707,49.6210732 L18.2891707,49.6210732 Z M20.6027317,50.8788293 C20.1921951,50.8788293 19.859122,50.6567805 19.859122,50.3832195 C19.859122,50.1092683 20.1921951,49.8876098 20.6027317,49.8876098 C21.0132683,49.8876098 21.3463415,50.1092683 21.3463415,50.3832195 C21.3463415,50.6569756 21.0134634,50.8788293 20.6027317,50.8788293 L20.6027317,50.8788293 Z M21.2727805,52.0632195 C21.2727805,51.7894634 21.6058537,51.5676098 22.0163902,51.5676098 C22.4269268,51.5676098 22.76,51.7896585 22.76,52.0632195 C22.76,52.3371707 22.4269268,52.5588293 22.0163902,52.5588293 C21.6058537,52.5588293 21.2727805,52.3371707 21.2727805,52.0632195 L21.2727805,52.0632195 Z M23.256,54.4593171 C22.8450732,54.4593171 22.5121951,54.2372683 22.5121951,53.9633171 C22.5121951,53.689561 22.8452683,53.4677073 23.256,53.4677073 C23.6665366,53.4677073 23.9996098,53.6897561 23.9996098,53.9633171 C23.9996098,54.2372683 23.6665366,54.4593171 23.256,54.4593171 L23.256,54.4593171 Z M24.6694634,56.2493659 C24.2589268,56.2493659 23.9258537,56.0277073 23.9258537,55.7537561 C23.9258537,55.48 24.2589268,55.2581463 24.6694634,55.2581463 C25.08,55.2581463 25.4130732,55.4801951 25.4130732,55.7537561 C25.4130732,56.0275122 25.0801951,56.2493659 24.6694634,56.2493659 L24.6694634,56.2493659 Z M26.579122,57.7734634 C26.1685854,57.7734634 25.8355122,57.5514146 25.8355122,57.2778537 C25.8355122,57.0039024 26.1685854,56.7818537 26.579122,56.7818537 C26.9896585,56.7818537 27.3227317,57.0039024 27.3227317,57.2778537 C27.3227317,57.5514146 26.9896585,57.7734634 26.579122,57.7734634 L26.579122,57.7734634 Z M29.2505366,58.7646829 C28.84,58.7646829 28.5069268,58.5430244 28.5069268,58.2690732 C28.5069268,57.9953171 28.84,57.7734634 29.2505366,57.7734634 C29.6610732,57.7734634 29.9941463,57.9955122 29.9941463,58.2690732 C29.9941463,58.5430244 29.6612683,58.7646829 29.2505366,58.7646829 L29.2505366,58.7646829 Z M31.931122,58.7646829 C31.5205854,58.7646829 31.1875122,58.5430244 31.1875122,58.2690732 C31.1875122,57.9953171 31.5205854,57.7734634 31.931122,57.7734634 C32.3416585,57.7734634 32.6747317,57.9955122 32.6747317,58.2690732 C32.6747317,58.5430244 32.3416585,58.7646829 31.931122,58.7646829 L31.931122,58.7646829 Z M34.620878,58.342439 C34.2103415,58.342439 33.8772683,58.1203902 33.8772683,57.8468293 C33.8772683,57.5732683 34.2103415,57.3512195 34.620878,57.3512195 C35.0318049,57.3512195 35.3644878,57.5732683 35.3644878,57.8468293 C35.3644878,58.1203902 35.0318049,58.342439 34.620878,58.342439 L34.620878,58.342439 Z M55.6823415,47.7894634 C53.4645854,47.8630244 51.1644878,47.9004878 48.8476098,47.9004878 C46.5080976,47.9004878 44.2497561,47.862439 42.1358049,47.7869268 C30.8630244,47.3918049 24.654439,42.6339512 24.654439,34.3914146 C24.654439,33.5354146 24.8355122,30.526439 27.1678049,27.7303415 C29.4345366,25.012878 32.9079024,23.5758049 37.2122927,23.5758049 C37.505561,23.5758049 38.0302439,23.608 39.0954146,23.6739512 C41.3777561,23.816 45.1982439,24.0534634 48.980878,24.0534634 C52.4062439,24.0534634 55.8706341,23.8007805 57.7320976,23.6645854 C58.6033171,23.6005854 58.9529756,23.576 59.1781463,23.576 C68.3352195,23.576 71.5974634,29.4265366 71.5974634,34.9014634 C71.5972683,40.5428293 68.8360976,47.358439 55.6823415,47.7894634 L55.6823415,47.7894634 Z" id="Shape"></path>
                <path d="M16.0493659,54.9182439 C17.8236098,54.9182439 16.0796098,52.1662439 16.0493659,50.8788293 C16.0411707,52.1317073 14.275122,54.9182439 16.0493659,54.9182439 L16.0493659,54.9182439 Z" id="Shape"></path>
                <path d="M50.6037073,43.0757073 C50.4212683,43.0757073 50.2733659,43.2236098 50.2733659,43.4060488 C50.2733659,44.1342439 49.417561,44.9484878 48.2721951,44.9484878 C48.107122,44.9484878 47.9480976,44.9301463 47.7959024,44.8973659 C47.4158049,44.8156098 47.08,44.6437073 46.8050732,44.441561 C46.7500488,44.4013659 46.697561,44.3596098 46.6476098,44.3172683 C46.4977561,44.1900488 46.3713171,44.0563902 46.2718049,43.9291707 C46.105561,43.716878 46.0140488,43.5227317 46.0140488,43.4060488 C46.0140488,43.2236098 45.8661463,43.0757073 45.6835122,43.0757073 C45.5010732,43.0757073 45.3531707,43.2236098 45.3531707,43.4060488 C45.3531707,43.5002927 45.3724878,43.6054634 45.4093659,43.7172683 C45.4647805,43.884878 45.5603902,44.0677073 45.6903415,44.2513171 C45.8206829,44.4347317 45.9857561,44.6193171 46.1802927,44.7906341 C46.3748293,44.961561 46.5990244,45.1196098 46.848,45.2503415 C47.1590244,45.4134634 47.5082927,45.5338537 47.8858537,45.5838049 C48.0117073,45.6003902 48.1406829,45.6093659 48.2723902,45.6093659 C48.9588293,45.6093659 49.5541463,45.387122 50.0068293,45.0499512 C50.0714146,45.0017561 50.1330732,44.9514146 50.1918049,44.8987317 C50.3090732,44.7937561 50.4142439,44.6803902 50.5059512,44.5613659 C50.7348293,44.2641951 50.88,43.9313171 50.9217561,43.6027317 C50.9301463,43.5369756 50.934439,43.4714146 50.934439,43.4062439 C50.9342439,43.2236098 50.7863415,43.0757073 50.6037073,43.0757073 L50.6037073,43.0757073 Z" id="Shape"></path>
                <path d="M47.2913171,41.3069268 C47.3732683,41.4279024 47.4778537,41.5324878 47.5988293,41.614439 C47.6442927,41.644878 47.6919024,41.6725854 47.7416585,41.6965854 C47.8411707,41.7443902 47.948878,41.7783415 48.0620488,41.7957073 C48.118439,41.8042927 48.1763902,41.8087805 48.2355122,41.8087805 C48.4710244,41.8087805 48.6901463,41.7371707 48.872,41.614439 C48.9477073,41.5633171 49.0167805,41.5032195 49.0780488,41.4357073 C49.1635122,41.3418537 49.2261463,41.2298537 49.2764878,41.1112195 C49.3346341,40.974439 49.3738537,40.8280976 49.3738537,40.6700488 C49.3738537,40.041561 48.8641951,39.5317073 48.2355122,39.5317073 C47.9211707,39.5317073 47.6364878,39.659122 47.430439,39.8651707 C47.4214634,39.8741463 47.4146341,39.8852683 47.4060488,39.894439 C47.3475122,39.9570732 47.2977561,40.0269268 47.2542439,40.1016585 C47.1937561,40.2060488 47.1449756,40.318439 47.12,40.4405854 C47.1049756,40.5147317 47.0969756,40.5914146 47.0969756,40.6700488 C47.0969756,40.7486829 47.1051707,40.8253659 47.12,40.8997073 C47.150439,41.048 47.209561,41.1857561 47.2913171,41.3069268 L47.2913171,41.3069268 Z" id="Shape"></path>
                <path d="M38.8618537,29.3685854 C38.628878,29.0819512 38.3769756,28.8280976 38.1096585,28.6117073 C37.8421463,28.395122 37.5590244,28.216 37.2636098,28.0792195 C36.968,27.9422439 36.6600976,27.8472195 36.3428293,27.7994146 C36.1841951,27.7754146 36.0232195,27.7629268 35.8604878,27.7629268 C33.2542439,27.7629268 31.1418537,30.9112195 31.1418537,34.795122 C31.1418537,38.6788293 33.2542439,41.3865366 35.8604878,41.3865366 C36.0232195,41.3865366 36.1841951,41.376 36.3428293,41.3553171 C36.6600976,41.313561 36.968,41.2312195 37.2636098,41.1112195 C37.5590244,40.9910244 37.8421463,40.8329756 38.1096585,40.64 C38.3769756,40.4470244 38.628878,40.2195122 38.8618537,39.96 C39.0948293,39.7004878 39.3090732,39.4091707 39.5014634,39.0889756 C40.1748293,37.9683902 40.5789268,36.4942439 40.5789268,34.795122 C40.5789268,33.096 40.1746341,31.5377561 39.5014634,30.3219512 C39.3090732,29.974439 39.0948293,29.6554146 38.8618537,29.3685854 L38.8618537,29.3685854 Z" id="Shape"></path>
                <path d="M61.3633171,27.7627317 C58.7570732,27.7627317 56.6446829,30.9110244 56.6446829,34.7949268 C56.6446829,38.6786341 58.7570732,41.3863415 61.3633171,41.3863415 C63.9693659,41.3863415 66.0817561,38.6786341 66.0817561,34.7949268 C66.0817561,30.9110244 63.9693659,27.7627317 61.3633171,27.7627317 L61.3633171,27.7627317 Z" id="Shape"></path>
            </g>
        </g>
    </g>
</svg>